  0
SECTION
  2
HEADER
  9
$ACADVER
  1
AC1009
  9
$INSBASE
 10
0.0
 20
0.0
 30
0.0
  9
$EXTMIN
 10
0.0
 20
0.0
 30
0.0
  9
$EXTMAX
 10
0.0
 20
0.0
 30
0.0
  0
ENDSEC
  0
SECTION
  2
TABLES
  0
TABLE
  2
VPORT
 70
0
  0
ENDTAB
  0
TABLE
  2
LTYPE
 70
1
  0
LTYPE
  2
CONTINUOUS
 70
0
  3
Solid line
 72
65
 73
0
 40
0.0
  0
ENDTAB
  0
TABLE
  2
LAYER
 70
1
  0
LAYER
  2
0
 70
64
 62
7
  6
continuous
  0
ENDTAB
  0
TABLE
  2
STYLE
 70
1
  0
STYLE
  2
STANDARD
 70
0
 40
0
 41
1.0
 50
0.0
 71
0
 42
1
 3
ARIAL.TTF
 4

  0
ENDTAB
  0
TABLE
  2
VIEW
 70
0
  0
ENDTAB
  0
ENDSEC
  0
SECTION
  2
BLOCKS
  0
BLOCK
  8
0
  2
POCKET001_CS
 70
0
 10
0.0
 20
0.0
 30
0.0
  3
POCKET001_CS
  0
POLYLINE
  8
0
 62
0
 70
1
 66
1
 10
0.0
 20
0.0
 30
0.0
  0
VERTEX
  8
0
 10
11.5152020182
 20
-2.92292203473
 30
2.0
 42
-0.001372949829
  0
VERTEX
  8
0
 10
11.4989768799
 20
-2.98611477599
 30
2.0
  0
VERTEX
  8
0
 10
9.98370505883
 20
-3.52424998423
 30
2.0
  0
VERTEX
  8
0
 10
9.45384704399
 20
-3.61097993194
 30
2.0
 42
0.192981002633
  0
VERTEX
  8
0
 10
9.36345291949
 20
-3.83932781308
 30
2.0
  0
VERTEX
  8
0
 10
9.69032290059
 20
-4.26524873077
 30
2.0
  0
VERTEX
  8
0
 10
10.4265296208
 20
-5.69480735471
 30
2.0
 42
-0.00137294982892
  0
VERTEX
  8
0
 10
10.3950988294
 20
-5.751979752
 30
2.0
  0
VERTEX
  8
0
 10
8.79360327474
 20
-5.8963756749
 30
2.0
  0
VERTEX
  8
0
 10
8.25882286286
 20
-5.84861051189
 30
2.0
 42
0.192981002633
  0
VERTEX
  8
0
 10
8.11448082722
 20
-6.04730431982
 30
2.0
  0
VERTEX
  8
0
 10
8.32515936183
 20
-6.54113340739
 30
2.0
  0
VERTEX
  8
0
 10
8.68272002123
 20
-8.10886698456
 30
2.0
 42
-0.00137294982888
  0
VERTEX
  8
0
 10
8.63805848892
 20
-8.15642668589
 30
2.0
  0
VERTEX
  8
0
 10
7.05096705628
 20
-7.89801039657
 30
2.0
  0
VERTEX
  8
0
 10
6.54486646744
 20
-7.7187513837
 30
2.0
 42
0.192981002633
  0
VERTEX
  8
0
 10
6.3556460616
 20
-7.87530645572
 30
2.0
  0
VERTEX
  8
0
 10
6.43689544256
 20
-8.40601461542
 30
2.0
  0
VERTEX
  8
0
 10
6.39334318993
 20
-10.0134166794
 30
2.0
 42
-0.00137294982884
  0
VERTEX
  8
0
 10
6.33825716503
 20
-10.0483753339
 30
2.0
  0
VERTEX
  8
0
 10
4.86529264604
 20
-9.40338407816
 30
2.0
  0
VERTEX
  8
0
 10
4.41967204153
 20
-9.10389471849
 30
2.0
 42
0.192981002633
  0
VERTEX
  8
0
 10
4.19746267949
 20
-9.20847412366
 30
2.0
  0
VERTEX
  8
0
 10
4.1441777094
 20
-9.74271501
 30
2.0
  0
VERTEX
  8
0
 10
3.70224909294
 20
-11.2887865776
 30
2.0
 42
-0.00137294982894
  0
VERTEX
  8
0
 10
3.64019983298
 20
-11.3089476043
 30
2.0
  0
VERTEX
  8
0
 10
2.37391400555
 20
-10.3179085549
 30
2.0
  0
VERTEX
  8
0
 10
2.01677336684
 20
-9.91700686633
 30
2.0
 42
0.192981002633
  0
VERTEX
  8
0
 10
1.77553728005
 20
-9.96303949601
 30
2.0
  0
VERTEX
  8
0
 10
1.59106604953
 20
-10.4672447893
 30
2.0
  0
VERTEX
  8
0
 10
0.778529069518
 20
-11.8548404978
 30
2.0
 42
-0.00137294982891
  0
VERTEX
  8
0
 10
0.713415357708
 20
-11.8589371053
 30
2.0
  0
VERTEX
  8
0
 10
-0.266626382551
 20
-10.5841208905
 30
2.0
  0
VERTEX
  8
0
 10
-0.512846595667
 20
-10.1069970006
 30
2.0
 42
0.192981002633
  0
VERTEX
  8
0
 10
-0.757951656669
 20
-10.0915904553
 30
2.0
  0
VERTEX
  8
0
 10
-1.06201814176
 20
-10.5340790827
 30
2.0
  0
VERTEX
  8
0
 10
-2.19410879857
 20
-11.6760111905
 30
2.0
 42
-0.00137294982882
  0
VERTEX
  8
0
 10
-2.25819562825
 20
-11.6637859739
 30
2.0
  0
VERTEX
  8
0
 10
-2.89041365445
 20
-10.1852939849
 30
2.0
  0
VERTEX
  8
0
 10
-3.01024252045
 20
-9.66192734231
 30
2.0
 42
0.192981002633
  0
VERTEX
  8
0
 10
-3.24381570325
 20
-9.58604967206
 30
2.0
  0
VERTEX
  8
0
 10
-3.64837182737
 20
-9.93901844562
 30
2.0
  0
VERTEX
  8
0
 10
-5.02888274148
 20
-10.7635351587
 30
2.0
 42
-0.00137294982886
  0
VERTEX
  8
0
 10
-5.08791587782
 20
-10.7357562733
 30
2.0
  0
VERTEX
  8
0
 10
-5.33258560625
 20
-9.14648759935
 30
2.0
  0
VERTEX
  8
0
 10
-5.31849383678
 20
-8.60976325506
 30
2.0
 42
0.192981002633
  0
VERTEX
  8
0
 10
-5.52585887927
 20
-8.47818213288
 30
2.0
  0
VERTEX
  8
0
 10
-6.0054848933
 20
-8.71945272649
 30
2.0
  0
VERTEX
  8
0
 10
-7.5476734868
 20
-9.1747466274
 30
2.0
 42
-0.00137294982884
  0
VERTEX
  8
0
 10
-7.59794366074
 20
-9.13315952278
 30
2.0
  0
VERTEX
  8
0
 10
-7.43969159253
 20
-7.53297375949
 30
2.0
  0
VERTEX
  8
0
 10
-7.29256462528
 20
-7.016616078
 30
2.0
 42
0.192981002633
  0
VERTEX
  8
0
 10
-7.46069201922
 20
-6.83759922971
 30
2.0
  0
VERTEX
  8
0
 10
-7.98525125675
 20
-6.95201172465
 30
2.0
  0
VERTEX
  8
0
 10
-9.59221614855
 20
-7.00947502313
 30
2.0
 42
-0.00137294982886
  0
VERTEX
  8
0
 10
-9.63056470018
 20
-6.95669276999
 30
2.0
  0
VERTEX
  8
0
 10
-9.07933439478
 20
-5.44613547398
 30
2.0
  0
VERTEX
  8
0
 10
-8.80841675821
 20
-4.98258910745
 30
2.0
 42
0.192981002633
  0
VERTEX
  8
0
 10
-8.9267424411
 20
-4.76738482001
 30
2.0
  0
VERTEX
  8
0
 10
-9.46327491604
 20
-4.74775025844
 30
2.0
  0
VERTEX
  8
0
 10
-11.034044592
 20
-4.40377232412
 30
2.0
 42
-0.00137294982889
  0
VERTEX
  8
0
 10
-11.0580619408
 20
-4.34311142554
 30
2.0
  0
VERTEX
  8
0
 10
-10.1484892255
 20
-3.01709646715
 30
2.0
  0
VERTEX
  8
0
 10
-9.77080367113
 20
-2.6354877386
 30
2.0
 42
0.192981002633
  0
VERTEX
  8
0
 10
-9.83189280514
 20
-2.39761808886
 30
2.0
  0
VERTEX
  8
0
 10
-10.3466862089
 20
-2.24517018249
 30
2.0
  0
VERTEX
  8
0
 10
-11.7825634333
 20
-1.52136441403
 30
2.0
 42
-0.00137294982883
  0
VERTEX
  8
0
 10
-11.7907404809
 20
-1.45663641737
 30
2.0
  0
VERTEX
  8
0
 10
-10.5799771547
 20
-0.398482193187
 30
2.0
  0
VERTEX
  8
0
 10
-10.1192550549
 20
-0.122788982487
 30
2.0
 42
0.192981002633
  0
VERTEX
  8
0
 10
-10.1192691851
 20
0.122799804645
 30
2.0
  0
VERTEX
  8
0
 10
-10.5799771547
 20
0.398482193187
 30
2.0
  0
VERTEX
  8
0
 10
-11.7907404809
 20
1.45663641737
 30
2.0
 42
-0.00137294982883
  0
VERTEX
  8
0
 10
-11.7825634333
 20
1.52136441403
 30
2.0
  0
VERTEX
  8
0
 10
-10.3466862089
 20
2.24517018249
 30
2.0
  0
VERTEX
  8
0
 10
-9.83187642753
 20
2.39762505698
 30
2.0
 42
0.192981002633
  0
VERTEX
  8
0
 10
-9.77081466602
 20
2.63550173479
 30
2.0
  0
VERTEX
  8
0
 10
-10.1484892255
 20
3.01709646715
 30
2.0
  0
VERTEX
  8
0
 10
-11.0580619408
 20
4.34311142554
 30
2.0
 42
-0.00137294982888
  0
VERTEX
  8
0
 10
-11.034044592
 20
4.40377232411
 30
2.0
  0
VERTEX
  8
0
 10
-9.46327491604
 20
4.74775025844
 30
2.0
  0
VERTEX
  8
0
 10
-8.92672484511
 20
4.76738749627
 30
2.0
 42
0.192981002633
  0
VERTEX
  8
0
 10
-8.80842392697
 20
4.98260539825
 30
2.0
  0
VERTEX
  8
0
 10
-9.07933439478
 20
5.44613547398
 30
2.0
  0
VERTEX
  8
0
 10
-9.63056470018
 20
6.95669276999
 30
2.0
 42
-0.00137294982886
  0
VERTEX
  8
0
 10
-9.59221614855
 20
7.00947502313
 30
2.0
  0
VERTEX
  8
0
 10
-7.98525125675
 20
6.95201172465
 30
2.0
  0
VERTEX
  8
0
 10
-7.46067431049
 20
6.83759744595
 30
2.0
 42
0.192981002633
  0
VERTEX
  8
0
 10
-7.29256751747
 20
7.01663363979
 30
2.0
  0
VERTEX
  8
0
 10
-7.43969159253
 20
7.53297375949
 30
2.0
  0
VERTEX
  8
0
 10
-7.59794366074
 20
9.13315952278
 30
2.0
 42
-0.00137294982884
  0
VERTEX
  8
0
 10
-7.5476734868
 20
9.1747466274
 30
2.0
  0
VERTEX
  8
0
 10
-6.0054848933
 20
8.71945272649
 30
2.0
  0
VERTEX
  8
0
 10
-5.52584217049
 20
8.47817600117
 30
2.0
 42
0.192981002633
  0
VERTEX
  8
0
 10
-5.31849227066
 20
8.60978098437
 30
2.0
  0
VERTEX
  8
0
 10
-5.33258560625
 20
9.14648759935
 30
2.0
  0
VERTEX
  8
0
 10
-5.08791587782
 20
10.7357562733
 30
2.0
 42
-0.00137294982886
  0
VERTEX
  8
0
 10
-5.02888274148
 20
10.7635351587
 30
2.0
  0
VERTEX
  8
0
 10
-3.64837182737
 20
9.93901844562
 30
2.0
  0
VERTEX
  8
0
 10
-3.2438010443
 20
9.58603957769
 30
2.0
 42
0.192981002633
  0
VERTEX
  8
0
 10
-3.01023659443
 20
9.66194412514
 30
2.0
  0
VERTEX
  8
0
 10
-2.89041365445
 20
10.1852939849
 30
2.0
  0
VERTEX
  8
0
 10
-2.25819562825
 20
11.6637859739
 30
2.0
 42
-0.00137294982884
  0
VERTEX
  8
0
 10
-2.19410879857
 20
11.6760111905
 30
2.0
  0
VERTEX
  8
0
 10
-1.06201814176
 20
10.5340790827
 30
2.0
  0
VERTEX
  8
0
 10
-0.757939968624
 20
10.0915770326
 30
2.0
 42
0.192981002633
  0
VERTEX
  8
0
 10
-0.512836682106
 20
10.1070117824
 30
2.0
  0
VERTEX
  8
0
 10
-0.266626382551
 20
10.5841208905
 30
2.0
  0
VERTEX
  8
0
 10
0.713415357708
 20
11.8589371053
 30
2.0
 42
-0.00137294982881
  0
VERTEX
  8
0
 10
0.778529069518
 20
11.8548404978
 30
2.0
  0
VERTEX
  8
0
 10
1.59106604953
 20
10.4672447893
 30
2.0
  0
VERTEX
  8
0
 10
1.77554526279
 20
9.96302358824
 30
2.0
 42
0.192981002633
  0
VERTEX
  8
0
 10
2.01678664504
 20
9.91701871836
 30
2.0
  0
VERTEX
  8
0
 10
2.37391400555
 20
10.3179085549
 30
2.0
  0
VERTEX
  8
0
 10
3.64019983298
 20
11.3089476043
 30
2.0
 42
-0.00137294982891
  0
VERTEX
  8
0
 10
3.70224909294
 20
11.2887865776
 30
2.0
  0
VERTEX
  8
0
 10
4.1441777094
 20
9.74271501
 30
2.0
  0
VERTEX
  8
0
 10
4.19746645534
 20
9.20845673044
 30
2.0
 42
0.192981002633
  0
VERTEX
  8
0
 10
4.41968785005
 20
9.10390289601
 30
2.0
  0
VERTEX
  8
0
 10
4.86529264604
 20
9.40338407816
 30
2.0
  0
VERTEX
  8
0
 10
6.33825716503
 20
10.0483753339
 30
2.0
 42
-0.00137294982886
  0
VERTEX
  8
0
 10
6.39334318993
 20
10.0134166794
 30
2.0
  0
VERTEX
  8
0
 10
6.43689544256
 20
8.40601461542
 30
2.0
  0
VERTEX
  8
0
 10
6.3556453933
 20
7.87528866993
 30
2.0
 42
0.192981002633
  0
VERTEX
  8
0
 10
6.54488381298
 20
7.71875537289
 30
2.0
  0
VERTEX
  8
0
 10
7.05096705628
 20
7.89801039657
 30
2.0
  0
VERTEX
  8
0
 10
8.63805848892
 20
8.15642668589
 30
2.0
 42
-0.00137294982888
  0
VERTEX
  8
0
 10
8.68272002123
 20
8.10886698456
 30
2.0
  0
VERTEX
  8
0
 10
8.32515936183
 20
6.54113340739
 30
2.0
  0
VERTEX
  8
0
 10
8.11447575677
 20
6.047287259
 30
2.0
 42
0.192981002633
  0
VERTEX
  8
0
 10
8.25884065553
 20
5.8486100621
 30
2.0
  0
VERTEX
  8
0
 10
8.79360327474
 20
5.8963756749
 30
2.0
  0
VERTEX
  8
0
 10
10.3950988294
 20
5.751979752
 30
2.0
 42
-0.00137294982887
  0
VERTEX
  8
0
 10
10.4265296208
 20
5.69480735471
 30
2.0
  0
VERTEX
  8
0
 10
9.69032290059
 20
4.26524873077
 30
2.0
  0
VERTEX
  8
0
 10
9.36344376548
 20
3.83931254922
 30
2.0
 42
0.192981002633
  0
VERTEX
  8
0
 10
9.4538641658
 20
3.61097507142
 30
2.0
  0
VERTEX
  8
0
 10
9.98370505883
 20
3.52424998423
 30
2.0
  0
VERTEX
  8
0
 10
11.4989768799
 20
2.98611477599
 30
2.0
 42
-0.00137294982907
  0
VERTEX
  8
0
 10
11.5152020182
 20
2.92292203473
 30
2.0
  0
VERTEX
  8
0
 10
10.446607813
 20
1.72136278991
 30
2.0
  0
VERTEX
  8
0
 10
10.0240721661
 20
1.39009971197
 30
2.0
 42
0.192981002633
  0
VERTEX
  8
0
 10
10.0548666217
 20
1.14644923677
 30
2.0
  0
VERTEX
  8
0
 10
10.5464939366
 20
0.930682705767
 30
2.0
  0
VERTEX
  8
0
 10
11.8803319228
 20
0.0326212264439
 30
2.0
 42
-0.00137294982885
  0
VERTEX
  8
0
 10
11.8803319228
 20
-0.0326212264439
 30
2.0
  0
VERTEX
  8
0
 10
10.5464939366
 20
-0.930682705767
 30
2.0
  0
VERTEX
  8
0
 10
10.0548512465
 20
-1.14645820261
 30
2.0
 42
0.192981002633
  0
VERTEX
  8
0
 10
10.0240848285
 20
-1.39011221978
 30
2.0
  0
VERTEX
  8
0
 10
10.446607813
 20
-1.72136278991
 30
2.0
  0
SEQEND
  8
0
  0
POLYLINE
  8
0
 62
0
 70
1
 66
1
 10
0.0
 20
0.0
 30
0.0
  0
VERTEX
  8
0
 10
-4.15
 20
4.85
 30
2.0
  0
VERTEX
  8
0
 10
-7.85
 20
4.85
 30
2.0
  0
VERTEX
  8
0
 10
-7.85
 20
-4.85
 30
2.0
  0
VERTEX
  8
0
 10
-4.15
 20
-4.85
 30
2.0
  0
SEQEND
  8
0
  0
POLYLINE
  8
0
 62
0
 70
1
 66
1
 10
0.0
 20
0.0
 30
0.0
  0
VERTEX
  8
0
 10
1.1357816692
 20
1.99999999998
 30
2.0
  0
VERTEX
  8
0
 10
-1.1357816692
 20
1.99999999998
 30
2.0
 42
3.78593889704
  0
SEQEND
  8
0
  0
POLYLINE
  8
0
 62
0
 70
1
 66
1
 10
0.0
 20
0.0
 30
0.0
  0
VERTEX
  8
0
 10
4.15
 20
-4.85
 30
2.0
  0
VERTEX
  8
0
 10
7.85
 20
-4.85
 30
2.0
  0
VERTEX
  8
0
 10
7.85
 20
4.85
 30
2.0
  0
VERTEX
  8
0
 10
4.15
 20
4.85
 30
2.0
  0
SEQEND
  8
0
  0
ENDBLK
  0
ENDSEC
  0
SECTION
  2
ENTITIES
  0
INSERT
  2
POCKET001_CS
  8
0
 62
0
 10
0.0
 20
0.0
 30
0.0
  0
ENDSEC
  0
EOF
